<svg xmlns="http://www.w3.org/2000/svg" data-name="Layer 2" viewBox="0 0 149.77 180.1625" x="0px" y="0px"><g data-name="Layer 1"><path d="M62.67,138.5C0,138.5,0,106.93,0,63.25c0-1.38,1.12-2.5,2.5-2.5H122.84c1.38,0,2.5,1.12,2.5,2.5,0,43.69,0,75.25-62.67,75.25ZM5,65.75c.02,42.31,1.1,67.75,57.67,67.75s57.65-25.44,57.67-67.75H5Z"/><path d="M122.84,115.41h-5.91v-5h5.91c12.1,0,21.94-8.56,21.94-19.07s-9.84-19.07-21.94-19.07v-5c14.85,0,26.94,10.8,26.94,24.07s-12.08,24.07-26.94,24.07Z"/><path d="M124.38,104.31h-3.95v-4h3.95c5.63,0,10.22-4.11,10.22-9.16s-4.58-9.16-10.22-9.16v-4c7.84,0,14.22,5.9,14.22,13.16s-6.38,13.16-14.22,13.16Z"/><path d="M18.04,27.19H7.36c-.83,0-1.5-.67-1.5-1.5s.67-1.5,1.5-1.5h10.69c.83,0,1.5,.67,1.5,1.5s-.67,1.5-1.5,1.5Z"/><path d="M77.86,27.19h-10.69c-.83,0-1.5-.67-1.5-1.5s.67-1.5,1.5-1.5h10.69c.83,0,1.5,.67,1.5,1.5s-.67,1.5-1.5,1.5Z"/><path d="M74.35,35.73c-.17,0-.34-.03-.5-.09l-7.9-2.81c-.61-.22-1-.8-1-1.41,0-.17,.03-.34,.09-.5,.28-.78,1.13-1.19,1.92-.91l7.9,2.81c.61,.22,1,.8,1,1.41,0,.17-.03,.34-.09,.5-.22,.61-.8,1-1.41,1Z"/><path d="M11.71,35.73c-.62,0-1.19-.38-1.41-1-.06-.17-.09-.34-.09-.5,0-.62,.38-1.19,1-1.41l7.6-2.71c.78-.28,1.64,.13,1.92,.91,.06,.17,.09,.34,.09,.5,0,.62-.38,1.19-1,1.41l-7.6,2.71c-.17,.06-.34,.09-.5,.09Z"/><path d="M34.49,12.15c-1.6-1.7-2.82-4.16-4.29-5.98-1.54-1.9-3.17-3.71-4.87-5.46-1.52-1.56-4.26-.38-4.27,1.77,0,5.61-.02,11.22-.03,16.84l-2.72,2.64c-1.54,1.49-3.79,3.07-3.22,5.51,.24,1.02,.95,1.83,1.56,2.66,.66,.9,1.32,1.81,1.97,2.71,1.22,1.68,2.5,3.32,3.65,5.05,2.15,3.21,1.68,7.34,.96,10.96-.84,4.2-2.09,8.33-2.2,12.64-.04,1.35,1.17,2.5,2.5,2.5,11.29,.04,22.57,.07,33.86,.11,1.59,0,3.19,.01,4.78,.02,1.33,0,2.54-1.15,2.5-2.5-.11-4.32-1.36-8.44-2.2-12.64-.7-3.51-1.21-7.64,.84-10.78,1.13-1.73,2.41-3.36,3.63-5.02l1.83-2.52c.63-.86,1.4-1.7,1.74-2.73,.81-2.44-1.22-3.99-2.78-5.5l-3.2-3.12-.03-16.81c0-2.14-2.74-3.33-4.27-1.77-1.87,1.91-3.64,3.9-5.3,5.99-1.37,1.72-2.55,3.82-4.16,5.36m-17.05,17.9c-2.75,0-4.99-2.24-4.99-4.99,0-.55,.45-1,1-1s1,.45,1,1c0,1.65,1.34,2.99,2.99,2.99s2.99-1.34,2.99-2.99c0-.55,.45-1,1-1s1,.45,1,1c0,2.75-2.24,4.99-4.99,4.99Zm18.17,0c-2.75,0-4.99-2.24-4.99-4.99,0-.55,.45-1,1-1s1,.45,1,1c0,1.65,1.34,2.99,2.99,2.99s2.99-1.34,2.99-2.99c0-.55,.45-1,1-1s1,.45,1,1c0,2.75-2.24,4.99-4.99,4.99Z"/><path d="M89.28,144.13H36.06c-1.1,0-2-.9-2-2v-6.9c0-1.1,.9-2,2-2s2,.9,2,2v4.9h49.23v-4.86c0-1.1,.9-2,2-2s2,.9,2,2v6.86c0,1.1-.9,2-2,2Z"/><path d="M57.4,128.28c-47.55,0-47.55-24.03-47.55-57.29,0-.55,.45-1,1-1s1,.45,1,1c0,33.29,0,55.29,45.55,55.29,.55,0,1,.45,1,1s-.45,1-1,1Z"/><path d="M97.02,24.84c-3.29-3.54-9.01-3.75-12.83-.97s-5.93,7.83-5.46,12.6,3.1,8.92,5.66,13c1.09,1.74,2.16,3.54,2.67,5.25,.37,1.23,.45,1.53,.45,2.69,0,.27,0,.55-.03,.82,.06-.32,.05-.24-.04,.22-.06,.27-.12,.53-.2,.79-.16,.43-.18,.51-.07,.25-.84,1.84-.53,4.03,1.35,5.13,1.61,.94,4.29,.51,5.13-1.35,1.95-4.31,1.55-8.76-.3-13.03-1.59-3.67-4.17-6.77-5.95-10.34-.66-1.32-1.22-3.16-1.23-4.51-.02-1.7,.32-2.84,1.1-4.09,.1-.16,.2-.31,.3-.46-.22,.27-.19,.24,.1-.1,.26-.26,.5-.53,.78-.76-.48,.39,.61-.34,.75-.41-.56,.27,.28-.05,.43-.1,.73-.23-.31-.1,.39-.04,.23,0,.47,0,.7,.03-.42-.06-.41-.04,.03,.05,1.11,.26-.7-.17,.38,.14,.36,.24,.39,.24,.08,0,.18,.15,.34,.31,.49,.49,1.38,1.48,3.91,1.4,5.3,0,1.48-1.48,1.38-3.82,0-5.3h0Z"/></g><text x="0" y="159.13" fill="#000000" font-size="5px" font-weight="bold" font-family="'Helvetica Neue', Helvetica, Arial-Unicode, Arial, Sans-serif">Created by Emily Murphy</text><text x="0" y="164.13" fill="#000000" font-size="5px" font-weight="bold" font-family="'Helvetica Neue', Helvetica, Arial-Unicode, Arial, Sans-serif">from the Noun Project</text></svg>